HIERARCHY
ROOT Hips
{
	OFFSET 51.516201 -5.233934 86.583099
	CHANNELS 6 Xposition Yposition Zposition Xrotation Yrotation Zrotation
	JOINT spine
	{
		OFFSET 0.000000 -0.393701 6.846367
		CHANNELS 3 Xrotation Yrotation Zrotation
		JOINT spine1
		{
			OFFSET 0.000000 -0.000001 9.496208
			CHANNELS 3 Xrotation Yrotation Zrotation
			JOINT spine2
			{
				OFFSET 0.000000 -0.000001 9.099091
				CHANNELS 3 Xrotation Yrotation Zrotation
				JOINT Neck
				{
					OFFSET 0.000000 -1.113784 23.361206
					CHANNELS 3 Xrotation Yrotation Zrotation
					JOINT Head
					{
						OFFSET 0.000000 -0.000001 7.058014
						CHANNELS 3 Xrotation Yrotation Zrotation
						End Site
						{
							OFFSET 0.000000 5.634188 17.084396
						}
					}
				}
				JOINT RightShoulder
				{
					OFFSET -3.831360 0.533489 9.826309
					CHANNELS 3 Xrotation Yrotation Zrotation
					JOINT RightArm
					{
						OFFSET 0.000000 -0.000002 12.888092
						CHANNELS 3 Xrotation Yrotation Zrotation
						JOINT RightArmRoll
						{
							OFFSET 0.000000 -0.000001 6.506165
							CHANNELS 3 Xrotation Yrotation Zrotation
							JOINT RightForeArm
							{
								OFFSET 0.000000 -0.000003 18.950104
								CHANNELS 3 Xrotation Yrotation Zrotation
								JOINT RightForeArmRoll
								{
									OFFSET 0.000000 -0.000001 7.300919
									CHANNELS 3 Xrotation Yrotation Zrotation
									JOINT RightHand
									{
										OFFSET 0.000000 -0.000002 14.651398
										CHANNELS 3 Xrotation Yrotation Zrotation
										End Site
										{
											OFFSET 0.000000 0.000000 0.100006
										}
									}
								}
							}
						}
					}
				}
				JOINT LeftShoulder
				{
					OFFSET 3.831360 0.533489 9.826309
					CHANNELS 3 Xrotation Yrotation Zrotation
					JOINT LeftArm
					{
						OFFSET 0.000000 -0.000002 12.888092
						CHANNELS 3 Xrotation Yrotation Zrotation
						JOINT LeftArmRoll
						{
							OFFSET 0.000000 -0.000001 6.506165
							CHANNELS 3 Xrotation Yrotation Zrotation
							JOINT LeftForeArm
							{
								OFFSET 0.000000 -0.000003 18.950104
								CHANNELS 3 Xrotation Yrotation Zrotation
								JOINT LeftForeArmRoll
								{
									OFFSET 0.000000 -0.000001 7.300919
									CHANNELS 3 Xrotation Yrotation Zrotation
									JOINT LeftHand
									{
										OFFSET 0.000000 -0.000002 14.651398
										CHANNELS 3 Xrotation Yrotation Zrotation
										End Site
										{
											OFFSET 0.000000 0.000000 0.100006
										}
									}
								}
							}
						}
					}
				}
			}
		}
	}
	JOINT RightUpLeg
	{
		OFFSET -6.068371 0.933477 -1.112778
		CHANNELS 3 Xrotation Yrotation Zrotation
		JOINT RightUpLegRoll
		{
			OFFSET 0.000000 -0.000003 17.179596
			CHANNELS 3 Xrotation Yrotation Zrotation
			JOINT RightLeg
			{
				OFFSET 0.000000 0.000003 -21.274300
				CHANNELS 3 Xrotation Yrotation Zrotation
				JOINT RightLegRoll
				{
					OFFSET 0.000000 -0.000003 21.343903
					CHANNELS 3 Xrotation Yrotation Zrotation
					JOINT RightFoot
					{
						OFFSET 0.000000 -0.000003 17.765198
						CHANNELS 3 Xrotation Yrotation Zrotation
						JOINT RightToeBase
						{
							OFFSET 0.000000 -0.000002 14.850792
							CHANNELS 3 Xrotation Yrotation Zrotation
							End Site
							{
								OFFSET 0.006294 0.829004 7.192123
							}
						}
					}
				}
			}
		}
	}
	JOINT LeftUpLeg
	{
		OFFSET 6.068371 0.933477 -1.112778
		CHANNELS 3 Xrotation Yrotation Zrotation
		JOINT LeftUpLegRoll
		{
			OFFSET 0.000000 -0.000003 17.179703
			CHANNELS 3 Xrotation Yrotation Zrotation
			JOINT LeftLeg
			{
				OFFSET 0.000000 -0.000003 21.274200
				CHANNELS 3 Xrotation Yrotation Zrotation
				JOINT LeftLegRoll
				{
					OFFSET 0.000000 -0.000004 21.541199
					CHANNELS 3 Xrotation Yrotation Zrotation
					JOINT LeftFoot
					{
						OFFSET 0.000000 -0.000003 17.567902
						CHANNELS 3 Xrotation Yrotation Zrotation
						JOINT LeftToeBase
						{
							OFFSET 0.000000 -0.000002 14.850800
							CHANNELS 3 Xrotation Yrotation Zrotation
							End Site
							{
								OFFSET -0.028210 0.829004 7.192123
							}
						}
					}
				}
			}
		}
	}
}
MOTION
Frames: 6
Frame Time: 0.041667
50.999500 -3.815783 86.636711 -3.771152 -0.038682 -2.857169 -1.430603 -1.358597 1.114993 1.168507 -2.740462 2.210856 2.813849 -2.713830 2.243565 11.577240 23.298759 -6.284085 9.046469 -18.890632 -5.215488 -9.246607 -49.604433 -10.256952 -61.083297 -121.995006 -49.906078 -0.000002 0.000000 -0.000003 0.163778 -19.884429 -0.621950 -0.000002 0.000002 -3.101210 -5.000206 -7.999243 0.000134 -29.081962 73.061980 33.445087 -85.020016 115.077568 61.604748 -0.000001 -0.000019 0.000001 0.240831 18.102554 -0.845877 0.000001 0.000003 3.000000 -5.000203 7.999044 -0.000139 -12.711552 -179.334704 -1.511716 -179.999991 0.000005 -1.266995 156.380077 -3.947369 -1.259319 0.000003 -0.000000 0.613217 71.888711 7.668223 -0.254056 25.456953 -7.355614 0.000000 -9.961095 177.947383 0.370996 -0.000003 -0.000005 -0.981653 -25.107212 1.139733 1.180098 -0.000004 -0.000002 -0.622999 75.632713 -6.162892 -3.875904 25.456957 7.355613 -0.000001 
51.006302 -3.814673 86.634407 -3.783381 -0.040881 -2.856434 -1.429213 -1.358608 1.117336 1.171349 -2.739989 2.216353 2.816681 -2.713274 2.249052 11.577649 23.281079 -6.288826 9.038030 -18.873414 -5.223067 -9.265012 -49.613575 -10.280608 -61.043183 -121.989993 -50.008166 -0.000001 -0.000001 -0.000003 0.163887 -19.947330 -0.593785 -0.000001 0.000001 -3.099790 -5.000206 -7.999243 0.000134 -29.034434 73.053210 33.393621 -84.970852 115.089931 61.552401 -0.000002 -0.000017 0.000003 0.233649 18.098166 -0.843383 -0.000001 0.000005 3.000002 -5.000203 7.999044 -0.000137 -12.703056 -179.332737 -1.511966 -179.999991 0.000005 -1.266995 156.370269 -3.943404 -1.259391 0.000003 0.000000 0.613217 71.894728 7.667206 -0.252032 25.456953 -7.355613 0.000001 -9.948403 177.951249 0.370487 -0.000004 -0.000004 -0.981644 -25.110116 1.140122 1.180096 -0.000003 -0.000002 -0.622999 75.636224 -6.162684 -3.875486 25.456957 7.355614 -0.000001 
51.011501 -3.824792 86.644989 -3.795922 -0.043118 -2.855651 -1.427752 -1.358628 1.119740 1.174332 -2.739506 2.222015 2.819663 -2.712698 2.254705 11.577905 23.262916 -6.293864 9.029150 -18.855330 -5.231096 -9.284228 -49.623254 -10.305314 -61.002755 -121.984747 -50.109130 -0.000001 0.000000 -0.000004 0.163985 -20.010431 -0.565915 -0.000003 0.000002 -3.098410 -5.000208 -7.999243 0.000134 -28.985089 73.044031 33.340209 -84.919517 115.102908 61.497521 -0.000002 -0.000017 0.000004 0.226209 18.093373 -0.840795 -0.000000 0.000003 3.000000 -5.000201 7.999046 -0.000138 -12.694460 -179.331753 -1.511916 -179.999991 0.000005 -1.266995 156.360024 -3.940341 -1.259890 0.000002 0.000000 0.613217 71.900746 7.666221 -0.250103 25.456955 -7.355613 -0.000000 -9.935322 177.955101 0.370031 -0.000003 -0.000004 -0.981631 -25.113018 1.140476 1.180094 -0.000003 -0.000002 -0.622999 75.639823 -6.162439 -3.875159 25.456955 7.355614 -0.000001 
51.003799 -3.832082 86.643196 -3.808683 -0.045382 -2.854831 -1.426240 -1.358649 1.122186 1.177415 -2.739013 2.227812 2.822744 -2.712111 2.260493 11.577902 23.244281 -6.299007 9.019956 -18.836765 -5.239427 -9.304001 -49.633182 -10.330740 -60.963202 -121.978614 -50.210705 -0.000001 0.000000 -0.000003 0.164077 -20.073730 -0.538251 -0.000001 0.000002 -3.097030 -5.000206 -7.999243 0.000134 -28.934546 73.034584 33.285486 -84.867033 115.116254 61.441458 -0.000001 -0.000018 0.000001 0.218578 18.088381 -0.838151 -0.000001 0.000004 3.000003 -5.000203 7.999045 -0.000139 -12.685764 -179.329772 -1.512025 -179.999991 0.000005 -1.266995 156.349724 -3.936375 -1.259999 0.000003 0.000000 0.613217 71.906886 7.665223 -0.248083 25.456955 -7.355614 0.000000 -9.921969 177.958967 0.369616 -0.000003 -0.000005 -0.981615 -25.115823 1.140811 1.180094 -0.000004 -0.000002 -0.622999 75.643539 -6.162176 -3.874622 25.456957 7.355613 -0.000000 
51.000996 -3.822054 86.630402 -3.821569 -0.047661 -2.853983 -1.424711 -1.358670 1.124662 1.180559 -2.738520 2.233672 2.825877 -2.711525 2.266343 11.577883 23.225447 -6.304279 9.010609 -18.818011 -5.247912 -9.324120 -49.643492 -10.356612 -60.924816 -121.971852 -50.313339 -0.000002 0.000000 -0.000004 0.164162 -20.137129 -0.510704 -0.000002 0.000001 -3.095670 -5.000207 -7.999242 0.000134 -28.883415 73.024995 33.230124 -84.813792 115.129764 61.384420 0.000000 -0.000016 0.000003 0.210851 18.083290 -0.835477 0.000001 0.000004 3.000002 -5.000202 7.999044 -0.000136 -12.677064 -179.328775 -1.511872 -179.999991 0.000005 -1.266995 156.339314 -3.932395 -1.259111 0.000002 0.000000 0.613217 71.913115 7.664221 -0.246271 25.456953 -7.355614 0.000000 -9.908454 177.962819 0.369225 -0.000003 -0.000004 -0.981597 -25.118731 1.141137 1.180098 -0.000003 -0.000002 -0.622999 75.647221 -6.161888 -3.874286 25.456960 7.355613 -0.000001 
51.007195 -3.814013 86.631401 -3.834484 -0.049944 -2.853128 -1.423157 -1.358691 1.127138 1.183712 -2.738027 2.239543 2.829028 -2.710928 2.272212 11.577865 23.206614 -6.309598 9.001192 -18.799054 -5.256461 -9.344301 -49.653669 -10.382574 -60.886212 -121.964926 -50.415668 0.000001 -0.000002 -0.000003 0.164237 -20.200530 -0.483187 0.000001 0.000002 -3.094300 -5.000208 -7.999243 0.000134 -28.832062 73.015330 33.174519 -84.760435 115.143411 61.327251 0.000002 -0.000018 -0.000000 0.203095 18.078201 -0.832791 -0.000001 0.000004 3.000001 -5.000203 7.999043 -0.000138 -12.668267 -179.326808 -1.511927 -179.999991 0.000005 -1.266995 156.328878 -3.929325 -1.259620 0.000002 0.000000 0.613216 71.919344 7.663188 -0.244164 25.456953 -7.355614 0.000001 -9.894911 177.966685 0.368841 -0.000003 -0.000004 -0.981579 -25.121530 1.141446 1.180094 -0.000004 -0.000002 -0.622999 75.650936 -6.161624 -3.873847 25.456957 7.355614 -0.000000 
